HIERARCHY
ROOT Hips
{
 OFFSET 0.000000 0.000000 0.000000
 CHANNELS 6 Xposition Yposition Zposition Yrotation Xrotation Zrotation
 JOINT Chest
 {
  OFFSET 0.000000 10.080317 -0.001081
  CHANNELS 3 Yrotation Xrotation Zrotation
  JOINT Chest2
  {
   OFFSET 0.000000 11.096852 0.001963
   CHANNELS 3 Yrotation Xrotation Zrotation
   JOINT Chest3
   {
    OFFSET 0.000000 10.026525 0.000000
    CHANNELS 3 Yrotation Xrotation Zrotation
    JOINT Chest4
    {
     OFFSET 0.000000 10.026525 0.000000
     CHANNELS 3 Yrotation Xrotation Zrotation
     JOINT Neck
     {
      OFFSET 0.000000 14.108171 0.000000
      CHANNELS 3 Yrotation Xrotation Zrotation
      JOINT Head
      {
       OFFSET 0.000000 9.333493 0.004668
       CHANNELS 3 Yrotation Xrotation Zrotation
       End Site
       {
        OFFSET 0.000000 17.851786 0.002438
       }
      }
     }
     JOINT RightCollar
     {
      OFFSET -3.071622 7.873185 0.000000
      CHANNELS 3 Yrotation Xrotation Zrotation
      JOINT RightShoulder
      {
       OFFSET -14.378659 0.000000 0.000000
       CHANNELS 3 Yrotation Xrotation Zrotation
       JOINT RightElbow
       {
        OFFSET -30.778728 0.000000 0.000000
        CHANNELS 3 Yrotation Xrotation Zrotation
        JOINT RightWrist
        {
         OFFSET -25.164217 0.000000 0.000000
         CHANNELS 3 Yrotation Xrotation Zrotation
         End Site
         {
          OFFSET -18.796788 0.000000 0.000000
         }
        }
       }
      }
     }
     JOINT LeftCollar
     {
      OFFSET 3.071622 7.873185 0.000000
      CHANNELS 3 Yrotation Xrotation Zrotation
      JOINT LeftShoulder
      {
       OFFSET 14.378659 0.000000 0.000000
       CHANNELS 3 Yrotation Xrotation Zrotation
       JOINT LeftElbow
       {
        OFFSET 30.778728 0.000000 0.000000
        CHANNELS 3 Yrotation Xrotation Zrotation
        JOINT LeftWrist
        {
         OFFSET 25.164217 0.000000 0.000000
         CHANNELS 3 Yrotation Xrotation Zrotation
         End Site
         {
          OFFSET 18.796788 0.000000 0.000000
         }
        }
       }
      }
     }
    }
   }
  }
 }
 JOINT RightHip
 {
  OFFSET -8.194923 0.005295 0.000540
  CHANNELS 3 Yrotation Xrotation Zrotation
  JOINT RightKnee
  {
   OFFSET 0.000000 -42.473320 -0.000511
   CHANNELS 3 Yrotation Xrotation Zrotation
   JOINT RightAnkle
   {
    OFFSET 0.000000 -41.474259 -0.000865
    CHANNELS 3 Yrotation Xrotation Zrotation
    JOINT RightToe
    {
     OFFSET 0.000000 -7.354994 16.712725
     CHANNELS 3 Yrotation Xrotation Zrotation
     End Site
     {
      OFFSET 0.000000 -1.553903 6.764158
     }
    }
   }
  }
 }
 JOINT LeftHip
 {
  OFFSET 8.194923 0.005295 0.000540
  CHANNELS 3 Yrotation Xrotation Zrotation
  JOINT LeftKnee
  {
   OFFSET 0.000000 -42.473320 -0.000511
   CHANNELS 3 Yrotation Xrotation Zrotation
   JOINT LeftAnkle
   {
    OFFSET 0.000000 -41.474259 -0.000865
    CHANNELS 3 Yrotation Xrotation Zrotation
    JOINT LeftToe
    {
     OFFSET 0.000000 -7.354994 16.712725
     CHANNELS 3 Yrotation Xrotation Zrotation
     End Site
     {
      OFFSET 0.000000 -1.553903 6.764158
     }
    }
   }
  }
 }
}
MOTION
Frames: 9
Frame Time: 0.016667
-54.902380 88.935265 95.584779 -16.278310 -6.387079 -0.368147 4.809541 4.332087 -0.234288 2.308458 1.782989 -0.103997 2.308458 1.782989 -0.103997 1.731507 1.336872 -0.084729 -0.877154 22.471882 4.659225 -2.849853 5.729681 8.648109 -4.402697 -9.631822 7.856595 10.850862 -32.500399 45.344782 105.811350 -11.425760 21.839836 2.347474 2.705034 -5.784837 -20.966787 -14.297264 -0.122147 -9.905440 -53.776206 -48.919597 -85.335760 -5.560431 -34.912501 -2.927609 11.065095 25.225800 -14.278253 13.547556 -10.127769 -2.365291 13.815351 -5.243312 -21.540420 -15.767188 17.381889 1.623452 -0.938053 -0.050391 -1.436095 -15.105215 10.668418 -10.477328 17.370468 -3.759367 -1.591849 3.787168 -7.585592 -1.018719 0.292417 -0.776432
-55.054708 89.014482 95.450964 -18.146701 -6.715344 -0.523967 4.139732 4.431955 -0.192469 1.996614 1.780898 -0.110030 1.996614 1.780898 -0.110030 1.497661 1.335331 -0.088337 -0.110432 22.816270 4.376506 -1.372065 6.297189 7.918988 -5.142622 -8.681186 7.988617 9.513792 -31.376308 46.886723 109.059861 -13.930557 23.279234 2.633979 2.889906 -5.863317 -20.740631 -13.286233 -0.585750 -8.704496 -53.632743 -48.077811 -83.952389 -3.943873 -34.134845 -3.178524 10.955407 24.514763 -13.341191 13.341879 -9.867219 -1.578437 14.212557 -5.327703 -21.458985 -15.798028 17.332201 1.748027 -0.907982 0.044221 -0.624165 -14.306474 11.297709 -9.587305 17.086331 -3.555095 -1.404278 3.805611 -7.844668 -1.149695 0.240385 -0.667447
-55.192805 89.071565 95.297942 -19.923636 -6.970947 -0.673773 3.544306 4.479372 -0.151849 1.711328 1.776685 -0.115362 1.711328 1.776685 -0.115362 1.283728 1.332203 -0.091492 0.605331 23.116714 4.069593 0.013128 6.799116 7.168057 -5.813264 -7.833123 8.042939 8.084485 -30.480720 48.497109 111.566703 -16.491748 24.846941 2.914507 3.036828 -5.981260 -20.396095 -12.270337 -1.077146 -7.709974 -53.507734 -47.254211 -82.445543 -2.243282 -33.472220 -3.358268 10.922294 23.819729 -12.294728 13.045063 -9.506042 -0.853495 14.731334 -5.415818 -21.464313 -15.941263 17.279083 1.855939 -0.855307 0.141574 0.346153 -13.697378 11.894391 -8.955214 16.876066 -3.436528 -1.235895 3.797072 -8.106458 -1.264410 0.184432 -0.564761
-55.330890 89.135064 95.132794 -21.742178 -7.153146 -0.842972 3.118067 4.498481 -0.057525 1.456656 1.772325 -0.105870 1.456656 1.772325 -0.105870 1.092712 1.329000 -0.083622 1.285510 23.362801 3.729411 1.336456 7.214198 6.373314 -6.358998 -7.041229 8.068554 6.988232 -29.687680 49.758725 113.530429 -18.880857 26.203297 3.125338 3.236665 -6.093951 -19.881446 -11.341399 -1.606003 -6.812271 -53.340233 -46.792713 -81.031411 -0.317236 -32.890249 -3.626464 11.045644 23.303376 -10.918806 12.685645 -8.963545 -0.269403 15.348296 -5.544709 -21.615865 -16.198259 17.242821 1.916401 -0.740033 0.240450 1.472452 -13.239846 12.531724 -8.399119 16.751070 -3.403496 -1.085941 3.754085 -8.303748 -1.404315 0.112676 -0.501831
-55.422660 89.163862 94.997546 -23.521836 -7.321189 -0.911285 2.809688 4.530529 -0.023025 1.262841 1.770798 -0.094475 1.262841 1.770798 -0.094475 0.947329 1.327910 -0.074511 1.875997 23.564796 3.411532 2.487863 7.563378 5.647016 -6.748815 -6.349608 8.093892 6.299137 -28.874360 50.623548 115.066108 -20.848141 27.153635 3.377272 3.392599 -6.193715 -19.499725 -10.456905 -2.112171 -5.962800 -53.113325 -46.326744 -79.610259 1.356871 -32.314577 -3.812189 11.098484 22.898385 -9.465783 12.287134 -8.429414 0.285154 16.038967 -5.680116 -21.792218 -16.500101 17.222686 1.854726 -0.654224 0.284030 2.631178 -12.807996 13.070538 -7.830437 16.642852 -3.419369 -1.049101 3.611185 -8.488257 -1.453474 0.103698 -0.433589
-55.570088 89.185970 94.835528 -25.167162 -7.491156 -1.018276 2.554294 4.611644 0.086323 1.117564 1.790152 -0.091662 1.117564 1.790152 -0.091662 0.838373 1.342452 -0.072016 2.369702 23.711080 3.158523 3.444656 7.821279 5.065446 -7.044479 -5.785792 8.152600 6.059848 -28.219734 51.276080 116.145793 -22.266213 27.859320 3.606712 3.554644 -6.282912 -19.225561 -9.777024 -2.524644 -4.842992 -52.767669 -46.218721 -78.229488 2.497199 -31.872336 -3.930385 11.019518 22.583694 -8.073305 11.875943 -7.946950 0.753741 16.726637 -5.819871 -22.227121 -16.524467 17.192975 2.151234 -0.710625 0.483298 3.527128 -12.383859 13.620354 -7.290842 16.571161 -3.358000 -0.806636 3.480085 -8.705262 -1.569298 0.078119 -0.429952
-55.613523 89.205763 94.672718 -26.718125 -7.568377 -1.019246 2.378404 4.625962 0.108540 1.011361 1.818358 -0.100259 1.011361 1.818358 -0.100259 0.758755 1.363607 -0.078198 2.786489 23.840453 2.984018 4.241302 8.054920 4.646691 -7.213550 -5.442399 8.208889 6.099179 -27.660080 51.868515 116.848027 -23.077730 28.309649 3.719615 3.773020 -6.332842 -18.994671 -9.203773 -2.873111 -3.760761 -52.347884 -46.274562 -76.920329 3.058649 -31.463320 -4.016985 10.777705 22.233322 -6.850370 11.331453 -7.560053 1.146831 17.443522 -5.962888 -22.371216 -16.714631 17.188854 2.217076 -0.695304 0.568833 4.126697 -12.058182 13.987137 -6.681462 16.558337 -3.242861 -0.506270 3.392671 -8.918685 -1.597141 0.003658 -0.441164
-55.686839 89.229304 94.486119 -28.128095 -7.696787 -1.039447 2.285434 4.696539 0.138812 0.945197 1.851318 -0.122520 0.945197 1.851318 -0.122520 0.709207 1.388303 -0.094746 3.132502 23.969677 2.905743 4.885310 8.291570 4.420481 -7.331033 -5.280650 8.277329 6.329386 -27.246756 52.372859 117.157407 -23.593097 28.636883 3.698581 3.885449 -6.248304 -18.808131 -8.690395 -3.112061 -2.839557 -51.896257 -46.499149 -76.046767 3.599592 -31.053765 -4.111811 10.606718 21.921307 -5.818319 10.897706 -7.242658 1.606330 18.014683 -6.073598 -22.593126 -16.769644 17.177384 2.339022 -0.706590 0.673359 4.616143 -11.701087 14.370632 -6.186263 16.530921 -3.161680 -0.127686 3.365030 -9.085867 -1.642660 -0.100832 -0.499540
-55.754197 89.259437 94.295194 -29.447485 -7.857658 -1.034269 2.319025 4.759463 0.135637 0.913604 1.884237 -0.153783 0.913604 1.884237 -0.153783 0.685616 1.412952 -0.118145 3.387778 24.100618 2.942405 5.336714 8.531756 4.424842 -7.345489 -5.212333 8.365504 6.651463 -27.000687 52.736722 117.110493 -23.961854 28.873618 3.662633 3.963488 -6.150311 -18.631391 -8.210820 -3.295548 -2.227590 -51.490302 -46.694111 -75.699926 4.373654 -30.723776 -4.272808 10.661921 21.705978 -4.875994 10.552627 -6.972195 1.922142 18.496560 -6.161294 -22.603009 -16.855509 17.144209 2.375479 -0.708006 0.719984 5.026417 -11.272656 14.722144 -5.726823 16.418591 -3.085080 0.236500 3.381218 -9.231133 -1.649234 -0.198977 -0.575000
